<svg xmlns="http://www.w3.org/2000/svg" viewBox="0 0 512 512" role="img" aria-label="EutherList">
  <defs>
    <linearGradient id="paper" x1="86" y1="54" x2="424" y2="462" gradientUnits="userSpaceOnUse">
      <stop stop-color="#fffdf8"/>
      <stop offset="1" stop-color="#eee7d8"/>
    </linearGradient>
    <linearGradient id="green" x1="120" y1="120" x2="398" y2="404" gradientUnits="userSpaceOnUse">
      <stop stop-color="#6ca875"/>
      <stop offset="1" stop-color="#2d6d4a"/>
    </linearGradient>
  </defs>
  <rect x="36" y="36" width="440" height="440" rx="96" fill="url(#paper)"/>
  <rect x="36" y="36" width="440" height="440" rx="96" fill="none" stroke="#ded8ca" stroke-width="18"/>
  <path d="M158 332c16 42 56 70 102 70s86-28 102-70H158Z" fill="#f5eee0" stroke="#26362c" stroke-width="18" stroke-linejoin="round"/>
  <path d="M195 332h150" stroke="#3f7f55" stroke-width="18" stroke-linecap="round"/>
  <path d="M318 158l-54 96" stroke="#26362c" stroke-width="22" stroke-linecap="round"/>
  <circle cx="319" cy="156" r="31" fill="url(#green)"/>
  <circle cx="264" cy="254" r="28" fill="#fffdf8" stroke="#3f7f55" stroke-width="16"/>
  <circle cx="156" cy="184" r="30" fill="#fffdf8" stroke="#3f7f55" stroke-width="16"/>
  <circle cx="396" cy="210" r="26" fill="#fffdf8" stroke="#3f7f55" stroke-width="16"/>
  <path d="M184 196l58 38M289 244l69-28" stroke="#3f7f55" stroke-width="14" stroke-linecap="round"/>
  <path d="M220 145c0-24 20-44 44-44s44 20 44 44" fill="none" stroke="#26362c" stroke-width="18" stroke-linecap="round"/>
  <rect x="210" y="140" width="104" height="82" rx="24" fill="#26362c"/>
  <circle cx="262" cy="176" r="10" fill="#e4f0e4"/>
  <path d="M262 184v22" stroke="#e4f0e4" stroke-width="10" stroke-linecap="round"/>
</svg>
